# xmcd
#
# Track frame offsets:
# 150
# 11250
# 25618
# 37638
# 53018
# 66733
# 80430
# 92370
# 104580
# 117948
# 128918
# 141678
# 161333
# 176333
# 188975
# 205858
# 218583
# 233678
# 254025
# 266865
#
# Disc length: 3840 seconds
#
#
# Revision: 2
# Processed by: cddbd v1.5.2PL0 Copyright (c) Steve Scherf et al.
# Submitted via: FreeRIP 2.945 
#
DISCID=130efe14
DTITLE=Conway Twitty - 20 Greatest Hits
DYEAR=1987
DGENRE=Country
TTITLE0=Hello Darlin'
TTITLE1=Fifteen Years Ago
TTITLE2=I Can't See Me Without You
TTITLE3=Last Date (Lost Her Love On Our Last Date)
TTITLE4=Baby's Gone
TTITLE5=You've Never Been This Far Before
TTITLE6=I'm Not Through Loving You Yet
TTITLE7=Linda On My Mind
TTITLE8=There's A Honky-Tonk Angel (Who'll Take Me Back In)
TTITLE9=I Can't Believe She Gives It All To Me
TTITLE10=I See The Want-To In Your Eyes
TTITLE11=Don't Cry Joni
TTITLE12=Georgia Keeps Pulling On My Ring
TTITLE13=I've Already Loved You In My Mind
TTITLE14=Don't Take It Away
TTITLE15=I May Never Get To Heaven
TTITLE16=I'd Love To Lay You Down
TTITLE17=Rest Your Love On Me
TTITLE18=Tight Fittin' Jeans
TTITLE19=Red Neckin' Love Makin' Night
EXTD=
EXTT0=
EXTT1=
EXTT2=
EXTT3=
EXTT4=
EXTT5=
EXTT6=
EXTT7=
EXTT8=
EXTT9=
EXTT10=
EXTT11=
EXTT12=
EXTT13=
EXTT14=
EXTT15=
EXTT16=
EXTT17=
EXTT18=
EXTT19=
PLAYORDER=
